<svg width="1000" height="1000" viewBox="0 0 1000 1000" fill="none" xmlns="http://www.w3.org/2000/svg">
<g clip-path="url(#clip0_2137_2040)">
<rect width="1000" height="1000" fill="#1C1C1C"/>
<path d="M63.5581 924.765L-89.782 659.172L52.0064 577.311C88.6541 556.152 119.494 547.115 144.528 550.2C169.415 553.032 187.7 564.565 199.383 584.801C207.123 598.207 210.269 612.411 208.82 627.412C207.478 642.015 201.483 656.437 190.834 670.679C180.185 684.921 164.499 698.025 143.774 709.991L139.527 685.125C160.252 673.159 179.75 665.781 198.02 662.989C216.544 660.052 233.062 661.813 247.576 668.273C262.196 674.334 273.96 685.08 282.868 700.509C296.158 723.527 296.922 747.032 285.162 771.022C273.654 794.866 249.576 817.367 212.929 838.526L63.5581 924.765ZM115.368 811.381L169.202 780.3C179.059 774.609 185.366 768.606 188.124 762.293C191.134 755.833 190.668 749.188 186.725 742.359C182.782 735.529 177.261 731.803 170.161 731.18C163.315 730.412 154.963 732.873 145.106 738.564L85.2058 773.147L51.0329 713.958L98.8012 686.378C108.911 680.542 115.291 674.666 117.942 668.751C120.7 662.437 120.253 656.119 116.602 649.795C112.805 643.218 107.556 639.672 100.856 639.156C94.4077 638.495 86.1289 641.082 76.0193 646.919L34.3168 670.996L115.368 811.381Z" fill="#FFD700"/>
<path d="M485.842 689.054C445.15 712.547 407.078 719.857 371.626 710.984C336.174 702.11 306.984 677.817 284.056 638.105L199.719 492.029L289.19 440.373L371.993 583.793C383.676 604.029 395.665 616.331 407.96 620.699C420.109 624.815 432.375 623.297 444.76 616.147C457.397 608.851 464.844 598.987 467.102 586.554C469.466 573.722 464.807 557.188 453.124 536.953L370.32 393.532L458.274 342.752L542.611 488.828C565.539 528.54 571.983 565.966 561.941 601.105C551.9 636.244 526.533 665.561 485.842 689.054Z" fill="#FFD700"/>
<path d="M489.145 324.929L545.2 422.018L638.442 368.184L644.208 593.505L848.648 475.472L779.637 355.94L726.038 386.885L722.22 190.363L489.145 324.929Z" fill="#FFD700"/>
<path d="M1087.2 337.741L1031.15 240.652L937.908 294.485L932.142 69.1643L727.702 187.198L796.713 306.729L850.311 275.784L854.129 472.307L1087.2 337.741Z" fill="#FFD700"/>
</g>
<defs>
<clipPath id="clip0_2137_2040">
<rect width="1000" height="1000" fill="white"/>
</clipPath>
</defs>
</svg>
